<?xml version="1.0" standalone="no"?>
<!DOCTYPE svg PUBLIC "-//W3C//DTD SVG 20010904//EN"
 "http://www.w3.org/TR/2001/REC-SVG-20010904/DTD/svg10.dtd">
<svg version="1.0" xmlns="http://www.w3.org/2000/svg"
 width="490.000000pt" height="490.000000pt" viewBox="0 0 490.000000 490.000000"
 preserveAspectRatio="xMidYMid meet">
<metadata>
Created by potrace 1.11, written by Peter Selinger 2001-2013
</metadata>
<g transform="translate(0.000000,490.000000) scale(0.100000,-0.100000)"
fill="#000000" stroke="none">
<path d="M2249 4895 c-2 -1 -33 -6 -69 -9 -75 -6 -86 -8 -305 -50 -26 -5 -136
-36 -155 -43 -8 -4 -17 -7 -20 -8 -3 -1 -21 -6 -40 -12 -71 -21 -228 -89 -340
-146 -104 -54 -237 -132 -250 -147 -3 -3 -18 -14 -35 -24 -16 -11 -34 -23 -40
-28 -5 -4 -35 -27 -65 -50 -77 -59 -100 -79 -219 -198 -103 -102 -192 -202
-200 -224 -2 -5 -13 -19 -23 -31 -52 -55 -189 -285 -258 -430 -70 -150 -149
-379 -174 -510 -4 -16 -9 -41 -11 -55 -3 -14 -8 -43 -11 -65 -3 -22 -7 -45 -9
-52 -26 -80 -27 -580 -1 -718 2 -11 7 -42 10 -68 10 -63 12 -74 25 -122 5 -22
12 -53 15 -70 24 -137 179 -503 282 -667 58 -92 79 -123 92 -136 6 -7 12 -17
12 -21 0 -4 8 -16 18 -27 10 -10 31 -37 47 -59 45 -60 91 -111 195 -215 181
-181 346 -303 580 -428 69 -37 282 -132 305 -136 6 -1 15 -4 20 -8 9 -5 187
-56 275 -79 62 -15 170 -33 280 -46 83 -10 455 -10 539 -1 294 34 541 105 806
234 123 60 177 90 290 163 145 94 403 322 500 441 107 132 225 299 225 319 0
5 4 11 9 13 11 3 161 296 161 312 0 6 6 22 13 36 43 81 122 360 142 500 4 24
8 47 10 50 25 41 26 656 1 732 -3 7 -7 31 -10 53 -20 152 -83 371 -159 545
-102 236 -220 429 -391 639 -79 98 -413 401 -441 401 -4 0 -24 14 -45 30 -21
17 -42 30 -48 30 -6 0 -12 4 -14 8 -7 17 -229 134 -367 194 -88 38 -310 111
-375 124 -12 2 -32 6 -46 9 -59 13 -87 18 -165 30 -22 3 -56 8 -75 11 -40 6
-486 15 -491 9z"/>
</g>
</svg>
